<?xml version="1.0" encoding="UTF-8" standalone="no"?>
<svg viewBox="0 0 64 64" version="1.1" id="svg461" sodipodi:docname="OneDrive-sync.svg" inkscape:version="1.2.1 (9c6d41e410, 2022-07-14)" xml:space="preserve" width="64" height="64" inkscape:export-filename="OneDrive-sync_64.svg" inkscape:export-xdpi="96" inkscape:export-ydpi="96" xmlns:inkscape="http://www.inkscape.org/namespaces/inkscape" xmlns:sodipodi="http://sodipodi.sourceforge.net/DTD/sodipodi-0.dtd" xmlns="http://www.w3.org/2000/svg" xmlns:svg="http://www.w3.org/2000/svg"><defs id="defs465" /><sodipodi:namedview id="namedview463" pagecolor="#505050" bordercolor="#ffffff" borderopacity="1" inkscape:showpageshadow="0" inkscape:pageopacity="0" inkscape:pagecheckerboard="1" inkscape:deskcolor="#505050" showgrid="false" inkscape:zoom="8.0000004" inkscape:cx="29.624999" inkscape:cy="33.562499" inkscape:window-width="1920" inkscape:window-height="1006" inkscape:window-x="0" inkscape:window-y="0" inkscape:window-maximized="1" inkscape:current-layer="svg461" /><g id="g1777" transform="translate(19.946654,16.862501)"><g id="g469" transform="matrix(2.6665813,0,0,2.6665813,-19.946654,-23.368735)"><path fill="#0948ac" d="M 16.54,10.649 C 15.27,9.044 13.734,8.494 11.928,8.984 c -1.804,0.476 -2.845,1.724 -3.12,3.744 -2.106,0.179 -3.176,1.218 -3.21,3.105 -0.036,1.88 0.998,2.958 3.102,3.232 h 12.738 c 1.612,-0.182 2.463,-0.999 2.555,-2.448 0.093,-1.447 -0.649,-2.368 -2.225,-2.755 l -0.006,-0.02 c 0,-0.697 -0.166,-1.338 -0.479,-1.901 a 3.312,3.312 0 0 0 -1.396,-1.323 c -0.463,-0.253 -1.029,-0.387 -1.697,-0.432 -0.664,-0.043 -1.214,0.107 -1.65,0.463 z" id="path457" /><path fill="#0948ac" d="m 3.24,18.028 a 3.18,3.18 0 0 0 1.68,-0.453 l 0.062,0.09 c -0.21,-0.505 -0.301,-1.056 -0.301,-1.65 0,-0.534 0.091,-1.039 0.256,-1.53 a 3.72,3.72 0 0 1 0.75,-1.293 3.514,3.514 0 0 1 1.289,-0.996 5.42,5.42 0 0 1 1.021,-0.311 c 0.105,-0.52 0.3,-1.011 0.585,-1.471 0.285,-0.459 0.63,-0.862 1.05,-1.218 a 5.217,5.217 0 0 1 1.62,-0.95 c 0.6,-0.224 1.23,-0.327 1.89,-0.327 0.721,0 1.396,0.118 2.011,0.386 a 4.941,4.941 0 0 1 1.664,1.158 c 0.361,-0.133 0.765,-0.192 1.23,-0.192 h 0.285 C 18.092,8.038 17.506,7.042 16.576,6.269 15.647,5.497 14.553,5.095 13.262,5.065 12.303,5.081 11.432,5.319 10.653,5.779 A 5.624,5.624 0 0 0 8.792,7.622 C 8.222,7.28 7.577,7.117 6.858,7.117 5.716,7.147 4.77,7.533 4.016,8.261 c -0.75,0.728 -1.14,1.663 -1.17,2.792 0,0.197 0.012,0.384 0.042,0.561 -0.833,0.101 -1.518,0.445 -2.058,1.04 -0.539,0.593 -0.814,1.318 -0.83,2.172 0.031,0.906 0.346,1.665 0.953,2.26 0.607,0.6 1.367,0.914 2.287,0.942 z" id="path459" /></g><g id="g308" transform="matrix(2.1947368,0,0,2.1947368,-9.2371462,-8.2818206)"><path style="fill:#1e44a6;stroke-width:0.0772765" d="m 4.1260997,16.754239 h -0.03864 v -0.03864 -0.03864 h 0.03864 0.03864 v 0.03864 0.03864 z m 4.2504342,0 h -0.03864 v -0.03864 -0.03864 h 0.03864 0.03864 v 0.03864 0.03864 z m 4.3277151,0 h -0.03864 v -0.03864 -0.03864 h 0.03864 0.03864 v 0.03864 0.03864 z m 4.636837,0 h -0.03864 v -0.03864 -0.03864 h 0.03864 0.03864 v 0.03864 0.03864 z m 4.095873,0 h -0.03864 v -0.03864 -0.03864 h 0.03864 0.03864 v 0.03864 0.03864 z" id="path312" /><path style="fill:#1d43a6;stroke-width:0.0772765" d="M 5.8306492,22.549668 H 5.0975455 L 5.0243093,22.412839 4.9510731,22.276011 4.7460973,21.504889 4.5411216,20.733767 4.0783143,18.995138 3.6155071,17.25651 3.5770479,17.125236 3.5385888,16.993961 3.6875774,16.844989 3.836566,16.696016 l 0.6108454,-0.0111 0.6108455,-0.0111 0.1250997,0.09817 0.1250998,0.09817 0.2733856,1.004541 0.2733856,1.004541 0.4380544,1.651335 0.4380543,1.651336 -0.083792,0.183883 -0.083792,0.183884 z m 4.2504338,0 H 9.3479799 L 9.2747434,22.412839 9.2015077,22.276011 8.9965316,21.504889 8.7915556,20.733767 8.3287482,18.995138 7.8659416,17.25651 7.8274822,17.125236 7.7890231,16.993961 7.938012,16.844989 l 0.1489885,-0.148973 0.6108454,-0.0111 0.6108453,-0.0111 0.1250996,0.09817 0.1250996,0.09817 0.2733856,1.004541 0.273386,1.004541 0.438054,1.651335 0.438054,1.651336 -0.08379,0.183883 -0.08379,0.183884 z m 4.327715,0 h -0.733103 l -0.07324,-0.136829 -0.07324,-0.136828 -0.204977,-0.771122 -0.204976,-0.771122 -0.462807,-1.738629 -0.462807,-1.738628 -0.03846,-0.131274 -0.03846,-0.131275 0.148989,-0.148972 0.148988,-0.148973 0.610846,-0.0111 0.610845,-0.0111 0.1251,0.09817 0.125099,0.09817 0.273386,1.004541 0.273385,1.004541 0.438055,1.651335 0.438054,1.651336 -0.08379,0.183883 -0.08379,0.183884 z m 4.636837,0 h -0.733103 l -0.07324,-0.136829 -0.07324,-0.136828 -0.204976,-0.771122 -0.204976,-0.771122 -0.462808,-1.738629 -0.462806,-1.738628 -0.03846,-0.131274 -0.03846,-0.131275 0.148988,-0.148972 0.148989,-0.148973 0.610845,-0.0111 0.610845,-0.0111 0.1251,0.09817 0.1251,0.09817 0.273385,1.004541 0.273386,1.004541 0.438054,1.651335 0.438055,1.651336 -0.08379,0.183883 -0.08379,0.183884 z m 4.095873,0 h -0.733103 l -0.07324,-0.136829 -0.07324,-0.136828 -0.204976,-0.771122 -0.204976,-0.771122 -0.462808,-1.738629 -0.462806,-1.738628 -0.03846,-0.131274 -0.03846,-0.131275 0.148988,-0.148972 0.148989,-0.148973 0.610845,-0.0111 0.610845,-0.0111 0.1251,0.09817 0.1251,0.09817 0.273385,1.004541 0.273386,1.004541 0.438054,1.651335 0.438055,1.651336 -0.08379,0.183883 -0.08379,0.183884 z" id="path310" /></g></g></svg>
