<?xml version="1.0" encoding="UTF-8" standalone="no"?>
<svg viewBox="0 0 64 64" version="1.1" id="svg461" sodipodi:docname="OneDrive.svg" inkscape:version="1.2.1 (9c6d41e410, 2022-07-14)" inkscape:export-filename="OneDrive_64.svg" inkscape:export-xdpi="96" inkscape:export-ydpi="96" width="64" height="64" xmlns:inkscape="http://www.inkscape.org/namespaces/inkscape" xmlns:sodipodi="http://sodipodi.sourceforge.net/DTD/sodipodi-0.dtd" xmlns:xlink="http://www.w3.org/1999/xlink" xmlns="http://www.w3.org/2000/svg" xmlns:svg="http://www.w3.org/2000/svg" xmlns:rdf="http://www.w3.org/1999/02/22-rdf-syntax-ns#" xmlns:cc="http://creativecommons.org/ns#" xmlns:dc="http://purl.org/dc/elements/1.1/">
  <title id="title646">OneDrive SVG Icon</title>
  <defs id="defs465">
    <color-profile name="sRGB" xlink:href="file:///usr/share/color/icc/colord/sRGB.icc" id="color-profile1970" />
    <color-profile name="Apple-RGB" xlink:href="file:///usr/share/color/icc/colord/AppleRGB.icc" id="color-profile1972" />
  </defs>
  <sodipodi:namedview id="namedview463" pagecolor="#505050" bordercolor="#ffffff" borderopacity="1" inkscape:showpageshadow="0" inkscape:pageopacity="0" inkscape:pagecheckerboard="1" inkscape:deskcolor="#505050" showgrid="false" inkscape:zoom="8.3020834" inkscape:cx="50.951066" inkscape:cy="33.425345" inkscape:window-width="1920" inkscape:window-height="970" inkscape:window-x="1920" inkscape:window-y="36" inkscape:window-maximized="1" inkscape:current-layer="svg461" shape-rendering="auto" inkscape:document-units="px" />
  <g id="g462" transform="matrix(2.6666667,0,0,2.6666667,-0.00102813,-1.507268)" inkscape:export-filename="OneDrive_scaled_64.svg" inkscape:export-xdpi="96" inkscape:export-ydpi="96">
    <g id="g456">
      <g id="g469" transform="matrix(0.99996797,0,0,0.99996797,3.8554797e-4,3.8782191e-4)">
        <path fill="#0948ac" d="M 16.54,10.649 C 15.27,9.044 13.734,8.494 11.928,8.984 c -1.804,0.476 -2.845,1.724 -3.12,3.744 -2.106,0.179 -3.176,1.218 -3.21,3.105 -0.036,1.88 0.998,2.958 3.102,3.232 h 12.738 c 1.612,-0.182 2.463,-0.999 2.555,-2.448 0.093,-1.447 -0.649,-2.368 -2.225,-2.755 l -0.006,-0.02 c 0,-0.697 -0.166,-1.338 -0.479,-1.901 a 3.312,3.312 0 0 0 -1.396,-1.323 c -0.463,-0.253 -1.029,-0.387 -1.697,-0.432 -0.664,-0.043 -1.214,0.107 -1.65,0.463 z" id="path457" />
        <path fill="#0948ac" d="m 3.24,18.028 a 3.18,3.18 0 0 0 1.68,-0.453 l 0.062,0.09 c -0.21,-0.505 -0.301,-1.056 -0.301,-1.65 0,-0.534 0.091,-1.039 0.256,-1.53 a 3.72,3.72 0 0 1 0.75,-1.293 3.514,3.514 0 0 1 1.289,-0.996 5.42,5.42 0 0 1 1.021,-0.311 c 0.105,-0.52 0.3,-1.011 0.585,-1.471 0.285,-0.459 0.63,-0.862 1.05,-1.218 a 5.217,5.217 0 0 1 1.62,-0.95 c 0.6,-0.224 1.23,-0.327 1.89,-0.327 0.721,0 1.396,0.118 2.011,0.386 a 4.941,4.941 0 0 1 1.664,1.158 c 0.361,-0.133 0.765,-0.192 1.23,-0.192 h 0.285 C 18.092,8.038 17.506,7.042 16.576,6.269 15.647,5.497 14.553,5.095 13.262,5.065 12.303,5.081 11.432,5.319 10.653,5.779 A 5.624,5.624 0 0 0 8.792,7.622 C 8.222,7.28 7.577,7.117 6.858,7.117 5.716,7.147 4.77,7.533 4.016,8.261 c -0.75,0.728 -1.14,1.663 -1.17,2.792 0,0.197 0.012,0.384 0.042,0.561 -0.833,0.101 -1.518,0.445 -2.058,1.04 -0.539,0.593 -0.814,1.318 -0.83,2.172 0.031,0.906 0.346,1.665 0.953,2.26 0.607,0.6 1.367,0.914 2.287,0.942 z" id="path459" />
      </g>
    </g>
  </g>
  <metadata id="metadata644">
    <rdf:RDF>
      <cc:Work rdf:about="">
        <cc:license rdf:resource="http://creativecommons.org/licenses/by/4.0/" />
        <dc:title>OneDrive SVG Icon</dc:title>
        <dc:creator>
          <cc:Agent>
            <dc:title>Deren Vura</dc:title>
          </cc:Agent>
        </dc:creator>
      </cc:Work>
      <cc:License rdf:about="http://creativecommons.org/licenses/by/4.0/">
        <cc:permits rdf:resource="http://creativecommons.org/ns#Reproduction" />
        <cc:permits rdf:resource="http://creativecommons.org/ns#Distribution" />
        <cc:requires rdf:resource="http://creativecommons.org/ns#Notice" />
        <cc:requires rdf:resource="http://creativecommons.org/ns#Attribution" />
        <cc:permits rdf:resource="http://creativecommons.org/ns#DerivativeWorks" />
      </cc:License>
    </rdf:RDF>
  </metadata>
</svg>
